<svg width="48" height="42" viewBox="0 0 48 42" fill="none" xmlns="http://www.w3.org/2000/svg">
<path d="M45.0833 1H2.91667C1.85812 1 1 1.89543 1 3V39C1 40.1046 1.85812 41 2.91667 41H45.0833C46.1419 41 47 40.1046 47 39V3C47 1.89543 46.1419 1 45.0833 1Z" stroke="black" stroke-width="2" stroke-linecap="round" stroke-linejoin="round"/>
<path d="M1 9H47" stroke="black" stroke-width="2" stroke-linecap="round" stroke-linejoin="round"/>
<path d="M33.5837 17C33.5837 19.6522 32.574 22.1957 30.7768 24.0711C28.9795 25.9464 26.542 27 24.0003 27C21.4587 27 19.0211 25.9464 17.2239 24.0711C15.4267 22.1957 14.417 19.6522 14.417 17" stroke="black" stroke-width="2" stroke-linecap="round" stroke-linejoin="round"/>
</svg>
