<svg width="42" height="42" viewBox="0 0 42 42" fill="none" xmlns="http://www.w3.org/2000/svg">
<path d="M21 41C32.0457 41 41 32.0457 41 21C41 9.9543 32.0457 1 21 1C9.9543 1 1 9.9543 1 21C1 32.0457 9.9543 41 21 41Z" stroke="black" stroke-width="2" stroke-miterlimit="10"/>
<path d="M21.0003 27.6667C25.6027 27.6667 29.3337 23.9357 29.3337 19.3333C29.3337 14.731 25.6027 11 21.0003 11C16.398 11 12.667 14.731 12.667 19.3333C12.667 23.9357 16.398 27.6667 21.0003 27.6667Z" stroke="black" stroke-width="2" stroke-miterlimit="10"/>
<path d="M7.625 35.8696C8.88044 33.4013 10.7944 31.3285 13.1551 29.8808C15.5157 28.433 18.2309 27.6667 21.0002 27.6667C23.7694 27.6667 26.4846 28.433 28.8453 29.8807C31.2059 31.3285 33.1199 33.4013 34.3754 35.8696" stroke="black" stroke-width="2" stroke-linecap="round" stroke-linejoin="round"/>
</svg>
